<mxfile>
    <diagram id="jswmAK12UX1AshvY_wTH" name="Page-1">
        <mxGraphModel dx="1255" dy="790" grid="1" gridSize="10" guides="1" tooltips="1" connect="1" arrows="1" fold="1" page="1" pageScale="1" pageWidth="827" pageHeight="1169" background="#F4F1DE" math="0" shadow="0">
            <root>
                <mxCell id="0"/>
                <mxCell id="1" parent="0"/>
                <mxCell id="2" value="StakingRewardsFactory" style="swimlane;fontStyle=1;align=center;verticalAlign=top;childLayout=stackLayout;horizontal=1;startSize=26;horizontalStack=0;resizeParent=1;resizeParentMax=0;resizeLast=0;collapsible=1;marginBottom=0;fillColor=#F2CC8F;strokeColor=#E07A5F;fontColor=#393C56;fontFamily=Times New Roman;" parent="1" vertex="1">
                    <mxGeometry x="110" y="530" width="240" height="268" as="geometry"/>
                </mxCell>
                <mxCell id="3" value="+ rewardsToken: address" style="text;strokeColor=none;fillColor=none;align=left;verticalAlign=top;spacingLeft=4;spacingRight=4;overflow=hidden;rotatable=0;points=[[0,0.5],[1,0.5]];portConstraint=eastwest;fontColor=#393C56;fontFamily=Times New Roman;" parent="2" vertex="1">
                    <mxGeometry y="26" width="240" height="26" as="geometry"/>
                </mxCell>
                <mxCell id="6" value="+ stakingTokens: address[]" style="text;strokeColor=none;fillColor=none;align=left;verticalAlign=top;spacingLeft=4;spacingRight=4;overflow=hidden;rotatable=0;points=[[0,0.5],[1,0.5]];portConstraint=eastwest;fontColor=#393C56;fontFamily=Times New Roman;" parent="2" vertex="1">
                    <mxGeometry y="52" width="240" height="26" as="geometry"/>
                </mxCell>
                <mxCell id="12" value="+ stakingRewardsInfoByStakingToken: &#10;mapping(address =&gt; StakingRewardsInfo)" style="text;strokeColor=none;fillColor=none;align=left;verticalAlign=top;spacingLeft=4;spacingRight=4;overflow=hidden;rotatable=0;points=[[0,0.5],[1,0.5]];portConstraint=eastwest;fontColor=#393C56;fontFamily=Times New Roman;" parent="2" vertex="1">
                    <mxGeometry y="78" width="240" height="42" as="geometry"/>
                </mxCell>
                <mxCell id="4" value="" style="line;strokeWidth=1;fillColor=none;align=left;verticalAlign=middle;spacingTop=-1;spacingLeft=3;spacingRight=3;rotatable=0;labelPosition=right;points=[];portConstraint=eastwest;strokeColor=#E07A5F;fontColor=#393C56;fontFamily=Times New Roman;labelBackgroundColor=#F4F1DE;" parent="2" vertex="1">
                    <mxGeometry y="120" width="240" height="8" as="geometry"/>
                </mxCell>
                <mxCell id="5" value="+ deploy(address stakingToken, &lt;br&gt;uint rewardAmount, &lt;br&gt;uint256 startTime): void" style="text;strokeColor=none;fillColor=none;align=left;verticalAlign=top;spacingLeft=4;spacingRight=4;overflow=hidden;rotatable=0;points=[[0,0.5],[1,0.5]];portConstraint=eastwest;fontColor=#393C56;html=1;fontFamily=Times New Roman;" parent="2" vertex="1">
                    <mxGeometry y="128" width="240" height="52" as="geometry"/>
                </mxCell>
                <mxCell id="14" value="+ notifyRewardAmount(&lt;br&gt;address stakingToken,&lt;br&gt;&amp;nbsp;uint256 rewardAmount)" style="text;strokeColor=none;fillColor=none;align=left;verticalAlign=top;spacingLeft=4;spacingRight=4;overflow=hidden;rotatable=0;points=[[0,0.5],[1,0.5]];portConstraint=eastwest;fontColor=#393C56;html=1;fontFamily=Times New Roman;" parent="2" vertex="1">
                    <mxGeometry y="180" width="240" height="50" as="geometry"/>
                </mxCell>
                <mxCell id="20" value="+ burn(address stakingToken,&lt;br&gt;&amp;nbsp;uint256 amount)" style="text;strokeColor=none;fillColor=none;align=left;verticalAlign=top;spacingLeft=4;spacingRight=4;overflow=hidden;rotatable=0;points=[[0,0.5],[1,0.5]];portConstraint=eastwest;fontColor=#393C56;html=1;fontFamily=Times New Roman;" parent="2" vertex="1">
                    <mxGeometry y="230" width="240" height="38" as="geometry"/>
                </mxCell>
                <mxCell id="7" value="StakingRewardsInfo" style="swimlane;fontStyle=1;align=center;verticalAlign=top;childLayout=stackLayout;horizontal=1;startSize=26;horizontalStack=0;resizeParent=1;resizeParentMax=0;resizeLast=0;collapsible=1;marginBottom=0;fillColor=#F2CC8F;strokeColor=#E07A5F;fontColor=#393C56;fontFamily=Times New Roman;" parent="1" vertex="1">
                    <mxGeometry x="484" y="640" width="160" height="86" as="geometry"/>
                </mxCell>
                <mxCell id="8" value="+ stakingRewards: address" style="text;strokeColor=none;fillColor=none;align=left;verticalAlign=top;spacingLeft=4;spacingRight=4;overflow=hidden;rotatable=0;points=[[0,0.5],[1,0.5]];portConstraint=eastwest;fontColor=#393C56;labelBackgroundColor=none;fontFamily=Times New Roman;" parent="7" vertex="1">
                    <mxGeometry y="26" width="160" height="26" as="geometry"/>
                </mxCell>
                <mxCell id="9" value="+ rewardAmount: uint256" style="text;strokeColor=none;fillColor=none;align=left;verticalAlign=top;spacingLeft=4;spacingRight=4;overflow=hidden;rotatable=0;points=[[0,0.5],[1,0.5]];portConstraint=eastwest;fontColor=#393C56;fontFamily=Times New Roman;" parent="7" vertex="1">
                    <mxGeometry y="52" width="160" height="26" as="geometry"/>
                </mxCell>
                <mxCell id="10" value="" style="line;strokeWidth=1;fillColor=none;align=left;verticalAlign=middle;spacingTop=-1;spacingLeft=3;spacingRight=3;rotatable=0;labelPosition=right;points=[];portConstraint=eastwest;strokeColor=#E07A5F;fontColor=#393C56;fontFamily=Times New Roman;labelBackgroundColor=#F4F1DE;" parent="7" vertex="1">
                    <mxGeometry y="78" width="160" height="8" as="geometry"/>
                </mxCell>
                <mxCell id="13" value="" style="endArrow=open;html=1;endSize=12;startArrow=diamondThin;startSize=14;startFill=1;edgeStyle=orthogonalEdgeStyle;align=left;verticalAlign=bottom;strokeColor=#E07A5F;fillColor=#F2CC8F;fontColor=#393C56;entryX=-0.019;entryY=1.062;entryDx=0;entryDy=0;entryPerimeter=0;fontFamily=Times New Roman;labelBackgroundColor=#F4F1DE;" parent="1" source="12" target="8" edge="1">
                    <mxGeometry x="-1" y="3" relative="1" as="geometry">
                        <mxPoint x="360" y="629" as="sourcePoint"/>
                        <mxPoint x="490" y="628.66" as="targetPoint"/>
                        <Array as="points">
                            <mxPoint x="420" y="629"/>
                            <mxPoint x="420" y="694"/>
                        </Array>
                    </mxGeometry>
                </mxCell>
                <mxCell id="16" value="StakingRewards" style="swimlane;fontStyle=1;align=center;verticalAlign=top;childLayout=stackLayout;horizontal=1;startSize=26;horizontalStack=0;resizeParent=1;resizeParentMax=0;resizeLast=0;collapsible=1;marginBottom=0;fillColor=#F2CC8F;strokeColor=#E07A5F;fontColor=#393C56;fontFamily=Times New Roman;" parent="1" vertex="1">
                    <mxGeometry x="770" y="690" width="160" height="86" as="geometry"/>
                </mxCell>
                <mxCell id="17" value="+ rewardsToken: IERC20" style="text;strokeColor=none;fillColor=none;align=left;verticalAlign=top;spacingLeft=4;spacingRight=4;overflow=hidden;rotatable=0;points=[[0,0.5],[1,0.5]];portConstraint=eastwest;fontColor=#393C56;labelBackgroundColor=none;fontFamily=Times New Roman;" parent="16" vertex="1">
                    <mxGeometry y="26" width="160" height="26" as="geometry"/>
                </mxCell>
                <mxCell id="18" value="+ stakingToken: IERC20" style="text;strokeColor=none;fillColor=none;align=left;verticalAlign=top;spacingLeft=4;spacingRight=4;overflow=hidden;rotatable=0;points=[[0,0.5],[1,0.5]];portConstraint=eastwest;fontColor=#393C56;fontFamily=Times New Roman;" parent="16" vertex="1">
                    <mxGeometry y="52" width="160" height="26" as="geometry"/>
                </mxCell>
                <mxCell id="19" value="" style="line;strokeWidth=1;fillColor=none;align=left;verticalAlign=middle;spacingTop=-1;spacingLeft=3;spacingRight=3;rotatable=0;labelPosition=right;points=[];portConstraint=eastwest;strokeColor=#E07A5F;fontColor=#393C56;fontFamily=Times New Roman;labelBackgroundColor=#F4F1DE;" parent="16" vertex="1">
                    <mxGeometry y="78" width="160" height="8" as="geometry"/>
                </mxCell>
                <mxCell id="23" value="" style="endArrow=open;html=1;endSize=12;startArrow=diamondThin;startSize=14;startFill=1;edgeStyle=orthogonalEdgeStyle;align=left;verticalAlign=bottom;strokeColor=#E07A5F;fillColor=#F2CC8F;fontColor=#393C56;entryX=-0.024;entryY=0.89;entryDx=0;entryDy=0;entryPerimeter=0;fontFamily=Times New Roman;labelBackgroundColor=#F4F1DE;" parent="1" source="8" target="17" edge="1">
                    <mxGeometry x="-1" y="3" relative="1" as="geometry">
                        <mxPoint x="600" y="680" as="sourcePoint"/>
                        <mxPoint x="730.96" y="744.612" as="targetPoint"/>
                        <Array as="points">
                            <mxPoint x="700" y="680"/>
                            <mxPoint x="700" y="739"/>
                        </Array>
                    </mxGeometry>
                </mxCell>
                <mxCell id="24" value="Bank" style="swimlane;fontStyle=1;align=center;verticalAlign=top;childLayout=stackLayout;horizontal=1;startSize=26;horizontalStack=0;resizeParent=1;resizeParentMax=0;resizeLast=0;collapsible=1;marginBottom=0;fillColor=#F2CC8F;strokeColor=#E07A5F;fontColor=#393C56;fontFamily=Times New Roman;" parent="1" vertex="1">
                    <mxGeometry x="693" y="60" width="240" height="158" as="geometry"/>
                </mxCell>
                <mxCell id="25" value="+ banks: mapping(address =&gt; TokenBank)" style="text;strokeColor=none;fillColor=none;align=left;verticalAlign=top;spacingLeft=4;spacingRight=4;overflow=hidden;rotatable=0;points=[[0,0.5],[1,0.5]];portConstraint=eastwest;fontColor=#393C56;fontFamily=Times New Roman;" parent="24" vertex="1">
                    <mxGeometry y="26" width="240" height="26" as="geometry"/>
                </mxCell>
                <mxCell id="26" value="+ productions: mapping(&#10;uint256 =&gt; Production)" style="text;strokeColor=none;fillColor=none;align=left;verticalAlign=top;spacingLeft=4;spacingRight=4;overflow=hidden;rotatable=0;points=[[0,0.5],[1,0.5]];portConstraint=eastwest;fontColor=#393C56;fontFamily=Times New Roman;" parent="24" vertex="1">
                    <mxGeometry y="52" width="240" height="38" as="geometry"/>
                </mxCell>
                <mxCell id="27" value="+ positions: mapping(uint256 =&gt; Position)" style="text;strokeColor=none;fillColor=none;align=left;verticalAlign=top;spacingLeft=4;spacingRight=4;overflow=hidden;rotatable=0;points=[[0,0.5],[1,0.5]];portConstraint=eastwest;fontColor=#393C56;fontFamily=Times New Roman;" parent="24" vertex="1">
                    <mxGeometry y="90" width="240" height="30" as="geometry"/>
                </mxCell>
                <mxCell id="57" value="- config: IBankConfig" style="text;strokeColor=none;fillColor=none;align=left;verticalAlign=top;spacingLeft=4;spacingRight=4;overflow=hidden;rotatable=0;points=[[0,0.5],[1,0.5]];portConstraint=eastwest;fontColor=#393C56;fontFamily=Times New Roman;" parent="24" vertex="1">
                    <mxGeometry y="120" width="240" height="30" as="geometry"/>
                </mxCell>
                <mxCell id="28" value="" style="line;strokeWidth=1;fillColor=none;align=left;verticalAlign=middle;spacingTop=-1;spacingLeft=3;spacingRight=3;rotatable=0;labelPosition=right;points=[];portConstraint=eastwest;strokeColor=#E07A5F;fontColor=#393C56;fontFamily=Times New Roman;labelBackgroundColor=#F4F1DE;" parent="24" vertex="1">
                    <mxGeometry y="150" width="240" height="8" as="geometry"/>
                </mxCell>
                <mxCell id="32" value="TokenBank" style="swimlane;fontStyle=1;align=center;verticalAlign=top;childLayout=stackLayout;horizontal=1;startSize=26;horizontalStack=0;resizeParent=1;resizeParentMax=0;resizeLast=0;collapsible=1;marginBottom=0;fillColor=#F2CC8F;strokeColor=#E07A5F;fontColor=#393C56;fontFamily=Times New Roman;" parent="1" vertex="1">
                    <mxGeometry x="1070" y="70.00000000000003" width="160" height="112" as="geometry"/>
                </mxCell>
                <mxCell id="33" value="+ totalVal: uint256" style="text;strokeColor=none;fillColor=none;align=left;verticalAlign=top;spacingLeft=4;spacingRight=4;overflow=hidden;rotatable=0;points=[[0,0.5],[1,0.5]];portConstraint=eastwest;fontColor=#393C56;labelBackgroundColor=none;fontFamily=Times New Roman;" parent="32" vertex="1">
                    <mxGeometry y="26" width="160" height="26" as="geometry"/>
                </mxCell>
                <mxCell id="34" value="+ totalDebt: uint256" style="text;strokeColor=none;fillColor=none;align=left;verticalAlign=top;spacingLeft=4;spacingRight=4;overflow=hidden;rotatable=0;points=[[0,0.5],[1,0.5]];portConstraint=eastwest;fontColor=#393C56;fontFamily=Times New Roman;" parent="32" vertex="1">
                    <mxGeometry y="52" width="160" height="26" as="geometry"/>
                </mxCell>
                <mxCell id="37" value="+ totalDebtShare: uint256" style="text;strokeColor=none;fillColor=none;align=left;verticalAlign=top;spacingLeft=4;spacingRight=4;overflow=hidden;rotatable=0;points=[[0,0.5],[1,0.5]];portConstraint=eastwest;fontColor=#393C56;fontFamily=Times New Roman;" parent="32" vertex="1">
                    <mxGeometry y="78" width="160" height="26" as="geometry"/>
                </mxCell>
                <mxCell id="35" value="" style="line;strokeWidth=1;fillColor=none;align=left;verticalAlign=middle;spacingTop=-1;spacingLeft=3;spacingRight=3;rotatable=0;labelPosition=right;points=[];portConstraint=eastwest;strokeColor=#E07A5F;fontColor=#393C56;fontFamily=Times New Roman;labelBackgroundColor=#F4F1DE;" parent="32" vertex="1">
                    <mxGeometry y="104" width="160" height="8" as="geometry"/>
                </mxCell>
                <mxCell id="36" value="" style="endArrow=open;html=1;endSize=12;startArrow=diamondThin;startSize=14;startFill=1;edgeStyle=orthogonalEdgeStyle;align=left;verticalAlign=bottom;strokeColor=#E07A5F;fillColor=#F2CC8F;fontColor=#393C56;fontFamily=Times New Roman;labelBackgroundColor=#F4F1DE;" parent="1" source="25" target="32" edge="1">
                    <mxGeometry x="-1" y="3" relative="1" as="geometry">
                        <mxPoint x="933" y="100.00448275862072" as="sourcePoint"/>
                        <mxPoint x="989" y="130" as="targetPoint"/>
                        <Array as="points">
                            <mxPoint x="1040" y="99"/>
                            <mxPoint x="1040" y="126"/>
                        </Array>
                    </mxGeometry>
                </mxCell>
                <mxCell id="43" value="Production" style="swimlane;fontStyle=1;align=center;verticalAlign=top;childLayout=stackLayout;horizontal=1;startSize=26;horizontalStack=0;resizeParent=1;resizeParentMax=0;resizeLast=0;collapsible=1;marginBottom=0;fillColor=#F2CC8F;strokeColor=#E07A5F;fontColor=#393C56;fontFamily=Times New Roman;" parent="1" vertex="1">
                    <mxGeometry x="1070" y="220.00000000000003" width="160" height="138" as="geometry"/>
                </mxCell>
                <mxCell id="44" value="+ borrowToken: address" style="text;strokeColor=none;fillColor=none;align=left;verticalAlign=top;spacingLeft=4;spacingRight=4;overflow=hidden;rotatable=0;points=[[0,0.5],[1,0.5]];portConstraint=eastwest;fontColor=#393C56;labelBackgroundColor=none;fontFamily=Times New Roman;" parent="43" vertex="1">
                    <mxGeometry y="26" width="160" height="26" as="geometry"/>
                </mxCell>
                <mxCell id="45" value="+ goblin: address" style="text;strokeColor=none;fillColor=none;align=left;verticalAlign=top;spacingLeft=4;spacingRight=4;overflow=hidden;rotatable=0;points=[[0,0.5],[1,0.5]];portConstraint=eastwest;fontColor=#393C56;fontFamily=Times New Roman;" parent="43" vertex="1">
                    <mxGeometry y="52" width="160" height="26" as="geometry"/>
                </mxCell>
                <mxCell id="46" value="+ openFactor: uint256" style="text;strokeColor=none;fillColor=none;align=left;verticalAlign=top;spacingLeft=4;spacingRight=4;overflow=hidden;rotatable=0;points=[[0,0.5],[1,0.5]];portConstraint=eastwest;fontColor=#393C56;fontFamily=Times New Roman;" parent="43" vertex="1">
                    <mxGeometry y="78" width="160" height="26" as="geometry"/>
                </mxCell>
                <mxCell id="49" value="+ openFactor: uint256" style="text;strokeColor=none;fillColor=none;align=left;verticalAlign=top;spacingLeft=4;spacingRight=4;overflow=hidden;rotatable=0;points=[[0,0.5],[1,0.5]];portConstraint=eastwest;fontColor=#393C56;fontFamily=Times New Roman;" parent="43" vertex="1">
                    <mxGeometry y="104" width="160" height="26" as="geometry"/>
                </mxCell>
                <mxCell id="47" value="" style="line;strokeWidth=1;fillColor=none;align=left;verticalAlign=middle;spacingTop=-1;spacingLeft=3;spacingRight=3;rotatable=0;labelPosition=right;points=[];portConstraint=eastwest;strokeColor=#E07A5F;fontColor=#393C56;fontFamily=Times New Roman;labelBackgroundColor=#F4F1DE;" parent="43" vertex="1">
                    <mxGeometry y="130" width="160" height="8" as="geometry"/>
                </mxCell>
                <mxCell id="48" value="" style="endArrow=open;html=1;endSize=12;startArrow=diamondThin;startSize=14;startFill=1;edgeStyle=orthogonalEdgeStyle;align=left;verticalAlign=bottom;strokeColor=#E07A5F;fillColor=#F2CC8F;fontColor=#393C56;fontFamily=Times New Roman;labelBackgroundColor=#F4F1DE;" parent="1" source="26" target="43" edge="1">
                    <mxGeometry x="-1" y="3" relative="1" as="geometry">
                        <mxPoint x="937" y="130" as="sourcePoint"/>
                        <mxPoint x="993" y="210" as="targetPoint"/>
                        <Array as="points">
                            <mxPoint x="1010" y="130"/>
                            <mxPoint x="1010" y="289"/>
                        </Array>
                    </mxGeometry>
                </mxCell>
                <mxCell id="50" value="Position" style="swimlane;fontStyle=1;align=center;verticalAlign=top;childLayout=stackLayout;horizontal=1;startSize=26;horizontalStack=0;resizeParent=1;resizeParentMax=0;resizeLast=0;collapsible=1;marginBottom=0;fillColor=#F2CC8F;strokeColor=#E07A5F;fontColor=#393C56;fontFamily=Times New Roman;" parent="1" vertex="1">
                    <mxGeometry x="1070" y="400" width="160" height="112" as="geometry"/>
                </mxCell>
                <mxCell id="51" value="+ owner: address" style="text;strokeColor=none;fillColor=none;align=left;verticalAlign=top;spacingLeft=4;spacingRight=4;overflow=hidden;rotatable=0;points=[[0,0.5],[1,0.5]];portConstraint=eastwest;fontColor=#393C56;labelBackgroundColor=none;fontFamily=Times New Roman;" parent="50" vertex="1">
                    <mxGeometry y="26" width="160" height="26" as="geometry"/>
                </mxCell>
                <mxCell id="52" value="+ productionId: uint256" style="text;strokeColor=none;fillColor=none;align=left;verticalAlign=top;spacingLeft=4;spacingRight=4;overflow=hidden;rotatable=0;points=[[0,0.5],[1,0.5]];portConstraint=eastwest;fontColor=#393C56;fontFamily=Times New Roman;" parent="50" vertex="1">
                    <mxGeometry y="52" width="160" height="26" as="geometry"/>
                </mxCell>
                <mxCell id="53" value="+ debtShare: uint256" style="text;strokeColor=none;fillColor=none;align=left;verticalAlign=top;spacingLeft=4;spacingRight=4;overflow=hidden;rotatable=0;points=[[0,0.5],[1,0.5]];portConstraint=eastwest;fontColor=#393C56;fontFamily=Times New Roman;" parent="50" vertex="1">
                    <mxGeometry y="78" width="160" height="26" as="geometry"/>
                </mxCell>
                <mxCell id="55" value="" style="line;strokeWidth=1;fillColor=none;align=left;verticalAlign=middle;spacingTop=-1;spacingLeft=3;spacingRight=3;rotatable=0;labelPosition=right;points=[];portConstraint=eastwest;strokeColor=#E07A5F;fontColor=#393C56;fontFamily=Times New Roman;labelBackgroundColor=#F4F1DE;" parent="50" vertex="1">
                    <mxGeometry y="104" width="160" height="8" as="geometry"/>
                </mxCell>
                <mxCell id="56" value="" style="endArrow=open;html=1;endSize=12;startArrow=diamondThin;startSize=14;startFill=1;edgeStyle=orthogonalEdgeStyle;align=left;verticalAlign=bottom;strokeColor=#E07A5F;fillColor=#F2CC8F;fontColor=#393C56;exitX=0.999;exitY=0.422;exitDx=0;exitDy=0;exitPerimeter=0;fontFamily=Times New Roman;labelBackgroundColor=#F4F1DE;" parent="1" source="27" target="50" edge="1">
                    <mxGeometry x="-1" y="3" relative="1" as="geometry">
                        <mxPoint x="950" y="160" as="sourcePoint"/>
                        <mxPoint x="1020" y="440" as="targetPoint"/>
                        <Array as="points">
                            <mxPoint x="980" y="163"/>
                            <mxPoint x="980" y="456"/>
                        </Array>
                    </mxGeometry>
                </mxCell>
                <mxCell id="58" value="BankConfig" style="swimlane;fontStyle=1;align=center;verticalAlign=top;childLayout=stackLayout;horizontal=1;startSize=26;horizontalStack=0;resizeParent=1;resizeParentMax=0;resizeLast=0;collapsible=1;marginBottom=0;fillColor=#F2CC8F;strokeColor=#E07A5F;fontColor=#393C56;fontFamily=Times New Roman;" parent="1" vertex="1">
                    <mxGeometry x="350" y="150" width="240" height="190" as="geometry"/>
                </mxCell>
                <mxCell id="59" value="+ getReserveBps: uint256" style="text;strokeColor=none;fillColor=none;align=left;verticalAlign=top;spacingLeft=4;spacingRight=4;overflow=hidden;rotatable=0;points=[[0,0.5],[1,0.5]];portConstraint=eastwest;fontColor=#393C56;fontFamily=Times New Roman;" parent="58" vertex="1">
                    <mxGeometry y="26" width="240" height="26" as="geometry"/>
                </mxCell>
                <mxCell id="60" value="+ getLiquidateBps: uint256" style="text;strokeColor=none;fillColor=none;align=left;verticalAlign=top;spacingLeft=4;spacingRight=4;overflow=hidden;rotatable=0;points=[[0,0.5],[1,0.5]];portConstraint=eastwest;fontColor=#393C56;fontFamily=Times New Roman;" parent="58" vertex="1">
                    <mxGeometry y="52" width="240" height="28" as="geometry"/>
                </mxCell>
                <mxCell id="61" value="+ interestModel: interestModel" style="text;strokeColor=none;fillColor=none;align=left;verticalAlign=top;spacingLeft=4;spacingRight=4;overflow=hidden;rotatable=0;points=[[0,0.5],[1,0.5]];portConstraint=eastwest;fontColor=#393C56;fontFamily=Times New Roman;" parent="58" vertex="1">
                    <mxGeometry y="80" width="240" height="30" as="geometry"/>
                </mxCell>
                <mxCell id="63" value="" style="line;strokeWidth=1;fillColor=none;align=left;verticalAlign=middle;spacingTop=-1;spacingLeft=3;spacingRight=3;rotatable=0;labelPosition=right;points=[];portConstraint=eastwest;strokeColor=#E07A5F;fontColor=#393C56;fontFamily=Times New Roman;labelBackgroundColor=#F4F1DE;" parent="58" vertex="1">
                    <mxGeometry y="110" width="240" height="8" as="geometry"/>
                </mxCell>
                <mxCell id="64" value="+ setParams(...): void" style="text;strokeColor=none;fillColor=none;align=left;verticalAlign=top;spacingLeft=4;spacingRight=4;overflow=hidden;rotatable=0;points=[[0,0.5],[1,0.5]];portConstraint=eastwest;fontColor=#393C56;html=1;fontFamily=Times New Roman;" parent="58" vertex="1">
                    <mxGeometry y="118" width="240" height="32" as="geometry"/>
                </mxCell>
                <mxCell id="65" value="+ getInterestRate(&lt;br&gt;uint256 debt, uint256 floating): uint256" style="text;strokeColor=none;fillColor=none;align=left;verticalAlign=top;spacingLeft=4;spacingRight=4;overflow=hidden;rotatable=0;points=[[0,0.5],[1,0.5]];portConstraint=eastwest;fontColor=#393C56;html=1;fontFamily=Times New Roman;" parent="58" vertex="1">
                    <mxGeometry y="150" width="240" height="40" as="geometry"/>
                </mxCell>
                <mxCell id="67" value="interestModel" style="swimlane;fontStyle=1;align=center;verticalAlign=top;childLayout=stackLayout;horizontal=1;startSize=26;horizontalStack=0;resizeParent=1;resizeParentMax=0;resizeLast=0;collapsible=1;marginBottom=0;fillColor=#F2CC8F;strokeColor=#E07A5F;fontColor=#393C56;fontFamily=Times New Roman;" parent="1" vertex="1">
                    <mxGeometry x="20" y="263" width="240" height="74" as="geometry"/>
                </mxCell>
                <mxCell id="72" value="" style="line;strokeWidth=1;fillColor=none;align=left;verticalAlign=middle;spacingTop=-1;spacingLeft=3;spacingRight=3;rotatable=0;labelPosition=right;points=[];portConstraint=eastwest;strokeColor=#E07A5F;fontColor=#393C56;fontFamily=Times New Roman;labelBackgroundColor=#F4F1DE;" parent="67" vertex="1">
                    <mxGeometry y="26" width="240" height="8" as="geometry"/>
                </mxCell>
                <mxCell id="74" value="+ getInterestRate(&lt;br&gt;uint256 debt, uint256 floating): uint256" style="text;strokeColor=none;fillColor=none;align=left;verticalAlign=top;spacingLeft=4;spacingRight=4;overflow=hidden;rotatable=0;points=[[0,0.5],[1,0.5]];portConstraint=eastwest;fontColor=#393C56;html=1;fontFamily=Times New Roman;" parent="67" vertex="1">
                    <mxGeometry y="34" width="240" height="40" as="geometry"/>
                </mxCell>
                <mxCell id="77" value="" style="endArrow=open;html=1;endSize=12;startArrow=diamondThin;startSize=14;startFill=0;edgeStyle=orthogonalEdgeStyle;align=left;verticalAlign=bottom;strokeColor=#E07A5F;fontColor=#393C56;fontFamily=Times New Roman;labelBackgroundColor=#F4F1DE;" parent="1" edge="1">
                    <mxGeometry x="-1" y="3" relative="1" as="geometry">
                        <mxPoint x="350" y="245" as="sourcePoint"/>
                        <mxPoint x="260" y="314" as="targetPoint"/>
                        <Array as="points">
                            <mxPoint x="310" y="245"/>
                            <mxPoint x="310" y="314"/>
                        </Array>
                    </mxGeometry>
                </mxCell>
                <mxCell id="78" value="" style="endArrow=open;html=1;endSize=12;startArrow=diamondThin;startSize=14;startFill=0;edgeStyle=orthogonalEdgeStyle;align=left;verticalAlign=bottom;strokeColor=#E07A5F;fontColor=#393C56;fontFamily=Times New Roman;labelBackgroundColor=#F4F1DE;" parent="1" source="57" edge="1">
                    <mxGeometry x="-1" y="3" relative="1" as="geometry">
                        <mxPoint x="680" y="182" as="sourcePoint"/>
                        <mxPoint x="590" y="251" as="targetPoint"/>
                        <Array as="points">
                            <mxPoint x="640" y="195"/>
                            <mxPoint x="640" y="251"/>
                        </Array>
                    </mxGeometry>
                </mxCell>
                <mxCell id="82" value="" style="endArrow=open;html=1;endSize=12;startArrow=diamondThin;startSize=14;startFill=0;edgeStyle=orthogonalEdgeStyle;align=left;verticalAlign=bottom;strokeColor=#E07A5F;fontColor=#393C56;fontFamily=Times New Roman;labelBackgroundColor=#F4F1DE;" parent="1" source="45" target="83" edge="1">
                    <mxGeometry x="-1" y="3" relative="1" as="geometry">
                        <mxPoint x="1230" y="283.97" as="sourcePoint"/>
                        <mxPoint x="1320" y="360" as="targetPoint"/>
                        <Array as="points">
                            <mxPoint x="1320" y="284"/>
                            <mxPoint x="1320" y="388"/>
                        </Array>
                    </mxGeometry>
                </mxCell>
                <mxCell id="83" value="Goblin" style="swimlane;fontStyle=1;align=center;verticalAlign=top;childLayout=stackLayout;horizontal=1;startSize=26;horizontalStack=0;resizeParent=1;resizeParentMax=0;resizeLast=0;collapsible=1;marginBottom=0;fillColor=#F2CC8F;strokeColor=#E07A5F;fontColor=#393C56;fontFamily=Times New Roman;" parent="1" vertex="1">
                    <mxGeometry x="1410" y="280" width="160" height="216" as="geometry"/>
                </mxCell>
                <mxCell id="84" value="+ wht: address" style="text;strokeColor=none;fillColor=none;align=left;verticalAlign=top;spacingLeft=4;spacingRight=4;overflow=hidden;rotatable=0;points=[[0,0.5],[1,0.5]];portConstraint=eastwest;fontColor=#393C56;labelBackgroundColor=none;fontFamily=Times New Roman;" parent="83" vertex="1">
                    <mxGeometry y="26" width="160" height="26" as="geometry"/>
                </mxCell>
                <mxCell id="85" value="+ token0: address" style="text;strokeColor=none;fillColor=none;align=left;verticalAlign=top;spacingLeft=4;spacingRight=4;overflow=hidden;rotatable=0;points=[[0,0.5],[1,0.5]];portConstraint=eastwest;fontColor=#393C56;fontFamily=Times New Roman;" parent="83" vertex="1">
                    <mxGeometry y="52" width="160" height="26" as="geometry"/>
                </mxCell>
                <mxCell id="86" value="+ token1: address" style="text;strokeColor=none;fillColor=none;align=left;verticalAlign=top;spacingLeft=4;spacingRight=4;overflow=hidden;rotatable=0;points=[[0,0.5],[1,0.5]];portConstraint=eastwest;fontColor=#393C56;fontFamily=Times New Roman;" parent="83" vertex="1">
                    <mxGeometry y="78" width="160" height="26" as="geometry"/>
                </mxCell>
                <mxCell id="87" value="+ operator: address" style="text;strokeColor=none;fillColor=none;align=left;verticalAlign=top;spacingLeft=4;spacingRight=4;overflow=hidden;rotatable=0;points=[[0,0.5],[1,0.5]];portConstraint=eastwest;fontColor=#393C56;fontFamily=Times New Roman;" parent="83" vertex="1">
                    <mxGeometry y="104" width="160" height="26" as="geometry"/>
                </mxCell>
                <mxCell id="89" value="+ lpToken: IMdexPair" style="text;strokeColor=none;fillColor=none;align=left;verticalAlign=top;spacingLeft=4;spacingRight=4;overflow=hidden;rotatable=0;points=[[0,0.5],[1,0.5]];portConstraint=eastwest;fontColor=#393C56;fontFamily=Times New Roman;" parent="83" vertex="1">
                    <mxGeometry y="130" width="160" height="26" as="geometry"/>
                </mxCell>
                <mxCell id="90" value="+ liqStrategy: Strategy" style="text;strokeColor=none;fillColor=none;align=left;verticalAlign=top;spacingLeft=4;spacingRight=4;overflow=hidden;rotatable=0;points=[[0,0.5],[1,0.5]];portConstraint=eastwest;fontColor=#393C56;fontFamily=Times New Roman;" parent="83" vertex="1">
                    <mxGeometry y="156" width="160" height="26" as="geometry"/>
                </mxCell>
                <mxCell id="91" value="+ staking: IStakingRewards" style="text;strokeColor=none;fillColor=none;align=left;verticalAlign=top;spacingLeft=4;spacingRight=4;overflow=hidden;rotatable=0;points=[[0,0.5],[1,0.5]];portConstraint=eastwest;fontColor=#393C56;fontFamily=Times New Roman;" parent="83" vertex="1">
                    <mxGeometry y="182" width="160" height="26" as="geometry"/>
                </mxCell>
                <mxCell id="88" value="" style="line;strokeWidth=1;fillColor=none;align=left;verticalAlign=middle;spacingTop=-1;spacingLeft=3;spacingRight=3;rotatable=0;labelPosition=right;points=[];portConstraint=eastwest;strokeColor=#E07A5F;fontColor=#393C56;fontFamily=Times New Roman;labelBackgroundColor=#F4F1DE;" parent="83" vertex="1">
                    <mxGeometry y="208" width="160" height="8" as="geometry"/>
                </mxCell>
                <mxCell id="92" value="" style="endArrow=open;endFill=1;endSize=12;html=1;strokeColor=#E07A5F;fillColor=#F2CC8F;fontColor=#393C56;entryX=0.606;entryY=-0.002;entryDx=0;entryDy=0;entryPerimeter=0;exitX=1;exitY=0.615;exitDx=0;exitDy=0;exitPerimeter=0;fontFamily=Times New Roman;labelBackgroundColor=#F4F1DE;" parent="1" source="87" target="24" edge="1">
                    <mxGeometry width="160" relative="1" as="geometry">
                        <mxPoint x="1520" y="400" as="sourcePoint"/>
                        <mxPoint x="900" y="30" as="targetPoint"/>
                        <Array as="points">
                            <mxPoint x="1610" y="400"/>
                            <mxPoint x="1610" y="20"/>
                            <mxPoint x="1240" y="20"/>
                            <mxPoint x="838" y="20"/>
                        </Array>
                    </mxGeometry>
                </mxCell>
                <mxCell id="97" value="LpStakingRewardsFactory" style="swimlane;fontStyle=1;align=center;verticalAlign=top;childLayout=stackLayout;horizontal=1;startSize=26;horizontalStack=0;resizeParent=1;resizeParentMax=0;resizeLast=0;collapsible=1;marginBottom=0;fillColor=#F2CC8F;strokeColor=#E07A5F;fontColor=#393C56;fontFamily=Times New Roman;" parent="1" vertex="1">
                    <mxGeometry x="460" y="820" width="240" height="268" as="geometry"/>
                </mxCell>
                <mxCell id="98" value="+ rewardsToken: address" style="text;strokeColor=none;fillColor=none;align=left;verticalAlign=top;spacingLeft=4;spacingRight=4;overflow=hidden;rotatable=0;points=[[0,0.5],[1,0.5]];portConstraint=eastwest;fontColor=#393C56;fontFamily=Times New Roman;" parent="97" vertex="1">
                    <mxGeometry y="26" width="240" height="26" as="geometry"/>
                </mxCell>
                <mxCell id="99" value="+ stakingTokens: address[]" style="text;strokeColor=none;fillColor=none;align=left;verticalAlign=top;spacingLeft=4;spacingRight=4;overflow=hidden;rotatable=0;points=[[0,0.5],[1,0.5]];portConstraint=eastwest;fontColor=#393C56;fontFamily=Times New Roman;" parent="97" vertex="1">
                    <mxGeometry y="52" width="240" height="26" as="geometry"/>
                </mxCell>
                <mxCell id="100" value="+ lpStakingRewardsInfoByStakingToken: &#10;mapping(address =&gt; LpStakingRewardsInfo)" style="text;strokeColor=none;fillColor=none;align=left;verticalAlign=top;spacingLeft=4;spacingRight=4;overflow=hidden;rotatable=0;points=[[0,0.5],[1,0.5]];portConstraint=eastwest;fontColor=#393C56;fontFamily=Times New Roman;" parent="97" vertex="1">
                    <mxGeometry y="78" width="240" height="42" as="geometry"/>
                </mxCell>
                <mxCell id="101" value="" style="line;strokeWidth=1;fillColor=none;align=left;verticalAlign=middle;spacingTop=-1;spacingLeft=3;spacingRight=3;rotatable=0;labelPosition=right;points=[];portConstraint=eastwest;strokeColor=#E07A5F;fontColor=#393C56;fontFamily=Times New Roman;labelBackgroundColor=#F4F1DE;" parent="97" vertex="1">
                    <mxGeometry y="120" width="240" height="8" as="geometry"/>
                </mxCell>
                <mxCell id="102" value="+ deploy(address stakingToken, &lt;br&gt;uint rewardAmount, &lt;br&gt;uint256 startTime): void" style="text;strokeColor=none;fillColor=none;align=left;verticalAlign=top;spacingLeft=4;spacingRight=4;overflow=hidden;rotatable=0;points=[[0,0.5],[1,0.5]];portConstraint=eastwest;fontColor=#393C56;html=1;fontFamily=Times New Roman;" parent="97" vertex="1">
                    <mxGeometry y="128" width="240" height="52" as="geometry"/>
                </mxCell>
                <mxCell id="103" value="+ notifyRewardAmount(&lt;br&gt;address stakingToken,&lt;br&gt;&amp;nbsp;uint256 rewardAmount)" style="text;strokeColor=none;fillColor=none;align=left;verticalAlign=top;spacingLeft=4;spacingRight=4;overflow=hidden;rotatable=0;points=[[0,0.5],[1,0.5]];portConstraint=eastwest;fontColor=#393C56;html=1;fontFamily=Times New Roman;" parent="97" vertex="1">
                    <mxGeometry y="180" width="240" height="50" as="geometry"/>
                </mxCell>
                <mxCell id="104" value="+ burn(address stakingToken,&lt;br&gt;&amp;nbsp;uint256 amount)" style="text;strokeColor=none;fillColor=none;align=left;verticalAlign=top;spacingLeft=4;spacingRight=4;overflow=hidden;rotatable=0;points=[[0,0.5],[1,0.5]];portConstraint=eastwest;fontColor=#393C56;html=1;fontFamily=Times New Roman;" parent="97" vertex="1">
                    <mxGeometry y="230" width="240" height="38" as="geometry"/>
                </mxCell>
                <mxCell id="105" value="LpStakingRewardsInfo" style="swimlane;fontStyle=1;align=center;verticalAlign=top;childLayout=stackLayout;horizontal=1;startSize=26;horizontalStack=0;resizeParent=1;resizeParentMax=0;resizeLast=0;collapsible=1;marginBottom=0;fillColor=#F2CC8F;strokeColor=#E07A5F;fontColor=#393C56;fontFamily=Times New Roman;" parent="1" vertex="1">
                    <mxGeometry x="900" y="830" width="160" height="86" as="geometry"/>
                </mxCell>
                <mxCell id="106" value="+ lpStakingRewards: address" style="text;strokeColor=none;fillColor=none;align=left;verticalAlign=top;spacingLeft=4;spacingRight=4;overflow=hidden;rotatable=0;points=[[0,0.5],[1,0.5]];portConstraint=eastwest;fontColor=#393C56;labelBackgroundColor=none;fontFamily=Times New Roman;" parent="105" vertex="1">
                    <mxGeometry y="26" width="160" height="26" as="geometry"/>
                </mxCell>
                <mxCell id="107" value="+ rewardAmount: uint256" style="text;strokeColor=none;fillColor=none;align=left;verticalAlign=top;spacingLeft=4;spacingRight=4;overflow=hidden;rotatable=0;points=[[0,0.5],[1,0.5]];portConstraint=eastwest;fontColor=#393C56;fontFamily=Times New Roman;" parent="105" vertex="1">
                    <mxGeometry y="52" width="160" height="26" as="geometry"/>
                </mxCell>
                <mxCell id="108" value="" style="line;strokeWidth=1;fillColor=none;align=left;verticalAlign=middle;spacingTop=-1;spacingLeft=3;spacingRight=3;rotatable=0;labelPosition=right;points=[];portConstraint=eastwest;strokeColor=#E07A5F;fontColor=#393C56;fontFamily=Times New Roman;labelBackgroundColor=#F4F1DE;" parent="105" vertex="1">
                    <mxGeometry y="78" width="160" height="8" as="geometry"/>
                </mxCell>
                <mxCell id="109" value="" style="endArrow=open;html=1;endSize=12;startArrow=diamondThin;startSize=14;startFill=1;edgeStyle=orthogonalEdgeStyle;align=left;verticalAlign=bottom;strokeColor=#E07A5F;fillColor=#F2CC8F;fontColor=#393C56;entryX=-0.019;entryY=1.062;entryDx=0;entryDy=0;entryPerimeter=0;fontFamily=Times New Roman;labelBackgroundColor=#F4F1DE;" parent="1" source="100" target="106" edge="1">
                    <mxGeometry x="-1" y="3" relative="1" as="geometry">
                        <mxPoint x="710" y="919" as="sourcePoint"/>
                        <mxPoint x="840" y="918.66" as="targetPoint"/>
                        <Array as="points">
                            <mxPoint x="800" y="919"/>
                            <mxPoint x="800" y="884"/>
                        </Array>
                    </mxGeometry>
                </mxCell>
                <mxCell id="110" value="StakingRewards" style="swimlane;fontStyle=1;align=center;verticalAlign=top;childLayout=stackLayout;horizontal=1;startSize=26;horizontalStack=0;resizeParent=1;resizeParentMax=0;resizeLast=0;collapsible=1;marginBottom=0;fillColor=#F2CC8F;strokeColor=#E07A5F;fontColor=#393C56;fontFamily=Times New Roman;" parent="1" vertex="1">
                    <mxGeometry x="1230" y="660" width="160" height="86" as="geometry"/>
                </mxCell>
                <mxCell id="111" value="+ rewardsToken: IERC20" style="text;strokeColor=none;fillColor=none;align=left;verticalAlign=top;spacingLeft=4;spacingRight=4;overflow=hidden;rotatable=0;points=[[0,0.5],[1,0.5]];portConstraint=eastwest;fontColor=#393C56;labelBackgroundColor=none;fontFamily=Times New Roman;" parent="110" vertex="1">
                    <mxGeometry y="26" width="160" height="26" as="geometry"/>
                </mxCell>
                <mxCell id="112" value="+ stakingToken: IERC20" style="text;strokeColor=none;fillColor=none;align=left;verticalAlign=top;spacingLeft=4;spacingRight=4;overflow=hidden;rotatable=0;points=[[0,0.5],[1,0.5]];portConstraint=eastwest;fontColor=#393C56;fontFamily=Times New Roman;" parent="110" vertex="1">
                    <mxGeometry y="52" width="160" height="26" as="geometry"/>
                </mxCell>
                <mxCell id="113" value="" style="line;strokeWidth=1;fillColor=none;align=left;verticalAlign=middle;spacingTop=-1;spacingLeft=3;spacingRight=3;rotatable=0;labelPosition=right;points=[];portConstraint=eastwest;strokeColor=#E07A5F;fontColor=#393C56;fontFamily=Times New Roman;labelBackgroundColor=#F4F1DE;" parent="110" vertex="1">
                    <mxGeometry y="78" width="160" height="8" as="geometry"/>
                </mxCell>
                <mxCell id="114" value="" style="endArrow=open;html=1;endSize=12;startArrow=diamondThin;startSize=14;startFill=1;edgeStyle=orthogonalEdgeStyle;align=left;verticalAlign=bottom;strokeColor=#E07A5F;fillColor=#F2CC8F;fontColor=#393C56;entryX=-0.024;entryY=0.89;entryDx=0;entryDy=0;entryPerimeter=0;fontFamily=Times New Roman;labelBackgroundColor=#F4F1DE;" parent="1" source="106" target="111" edge="1">
                    <mxGeometry x="-1" y="3" relative="1" as="geometry">
                        <mxPoint x="950" y="970" as="sourcePoint"/>
                        <mxPoint x="1080.96" y="1034.612" as="targetPoint"/>
                        <Array as="points">
                            <mxPoint x="1110" y="869"/>
                            <mxPoint x="1110" y="709"/>
                        </Array>
                    </mxGeometry>
                </mxCell>
                <mxCell id="115" value="" style="endArrow=open;html=1;endSize=12;startArrow=diamondThin;startSize=14;startFill=0;edgeStyle=orthogonalEdgeStyle;align=left;verticalAlign=bottom;strokeColor=#E07A5F;fontColor=#393C56;fontFamily=Times New Roman;labelBackgroundColor=#F4F1DE;" parent="1" source="90" target="127" edge="1">
                    <mxGeometry x="-1" y="3" relative="1" as="geometry">
                        <mxPoint x="1550" y="450.0044827586207" as="sourcePoint"/>
                        <mxPoint x="1740" y="400" as="targetPoint"/>
                        <Array as="points">
                            <mxPoint x="1640" y="449"/>
                            <mxPoint x="1640" y="388"/>
                        </Array>
                    </mxGeometry>
                </mxCell>
                <mxCell id="127" value="&lt;&lt;Interface&gt;&gt;&#10;Strategy" style="swimlane;fontStyle=1;align=center;verticalAlign=top;childLayout=stackLayout;horizontal=1;startSize=37;horizontalStack=0;resizeParent=1;resizeParentMax=0;resizeLast=0;collapsible=1;marginBottom=0;rounded=0;sketch=0;strokeColor=#E07A5F;fillColor=#F2CC8F;fontColor=#393C56;" parent="1" vertex="1">
                    <mxGeometry x="1750" y="340" width="160" height="130" as="geometry"/>
                </mxCell>
                <mxCell id="129" value="" style="line;strokeWidth=1;fillColor=none;align=left;verticalAlign=middle;spacingTop=-1;spacingLeft=3;spacingRight=3;rotatable=0;labelPosition=right;points=[];portConstraint=eastwest;strokeColor=#E07A5F;fontColor=#393C56;labelBackgroundColor=#F4F1DE;" parent="127" vertex="1">
                    <mxGeometry y="37" width="160" height="8" as="geometry"/>
                </mxCell>
                <mxCell id="130" value="+ execute(address user, &#10;address borrowToken, &#10;uint256 borrow, &#10;uint256 debt, &#10;bytes calldata data)" style="text;strokeColor=none;fillColor=none;align=left;verticalAlign=top;spacingLeft=4;spacingRight=4;overflow=hidden;rotatable=0;points=[[0,0.5],[1,0.5]];portConstraint=eastwest;fontColor=#393C56;" parent="127" vertex="1">
                    <mxGeometry y="45" width="160" height="85" as="geometry"/>
                </mxCell>
                <mxCell id="131" value="MdxStrategyAddTwoSidesOptimal" style="swimlane;fontStyle=1;align=center;verticalAlign=top;childLayout=stackLayout;horizontal=1;startSize=26;horizontalStack=0;resizeParent=1;resizeParentMax=0;resizeLast=0;collapsible=1;marginBottom=0;rounded=0;sketch=0;strokeColor=#E07A5F;fillColor=#F2CC8F;fontColor=#393C56;" parent="1" vertex="1">
                    <mxGeometry x="1565" y="570" width="240" height="60" as="geometry">
                        <mxRectangle x="1630" y="560" width="230" height="26" as="alternateBounds"/>
                    </mxGeometry>
                </mxCell>
                <mxCell id="132" value="+ router: IMdexRouter" style="text;strokeColor=none;fillColor=none;align=left;verticalAlign=top;spacingLeft=4;spacingRight=4;overflow=hidden;rotatable=0;points=[[0,0.5],[1,0.5]];portConstraint=eastwest;fontColor=#393C56;" parent="131" vertex="1">
                    <mxGeometry y="26" width="240" height="26" as="geometry"/>
                </mxCell>
                <mxCell id="133" value="" style="line;strokeWidth=1;fillColor=none;align=left;verticalAlign=middle;spacingTop=-1;spacingLeft=3;spacingRight=3;rotatable=0;labelPosition=right;points=[];portConstraint=eastwest;strokeColor=#E07A5F;fontColor=#393C56;labelBackgroundColor=#F4F1DE;" parent="131" vertex="1">
                    <mxGeometry y="52" width="240" height="8" as="geometry"/>
                </mxCell>
                <mxCell id="135" value="MdxStrategyWithdrawMinimizeTrading" style="swimlane;fontStyle=1;align=center;verticalAlign=top;childLayout=stackLayout;horizontal=1;startSize=26;horizontalStack=0;resizeParent=1;resizeParentMax=0;resizeLast=0;collapsible=1;marginBottom=0;rounded=0;sketch=0;strokeColor=#E07A5F;fillColor=#F2CC8F;fontColor=#393C56;" parent="1" vertex="1">
                    <mxGeometry x="1845" y="570" width="250" height="60" as="geometry"/>
                </mxCell>
                <mxCell id="136" value="+ factory: IMdexFactory" style="text;strokeColor=none;fillColor=none;align=left;verticalAlign=top;spacingLeft=4;spacingRight=4;overflow=hidden;rotatable=0;points=[[0,0.5],[1,0.5]];portConstraint=eastwest;fontColor=#393C56;" parent="135" vertex="1">
                    <mxGeometry y="26" width="250" height="26" as="geometry"/>
                </mxCell>
                <mxCell id="137" value="" style="line;strokeWidth=1;fillColor=none;align=left;verticalAlign=middle;spacingTop=-1;spacingLeft=3;spacingRight=3;rotatable=0;labelPosition=right;points=[];portConstraint=eastwest;strokeColor=#E07A5F;fontColor=#393C56;labelBackgroundColor=#F4F1DE;" parent="135" vertex="1">
                    <mxGeometry y="52" width="250" height="8" as="geometry"/>
                </mxCell>
                <mxCell id="139" value="" style="endArrow=block;dashed=1;endFill=0;endSize=12;html=1;strokeColor=#E07A5F;fillColor=#F2CC8F;fontColor=#393C56;labelBackgroundColor=#F4F1DE;" parent="1" source="131" target="130" edge="1">
                    <mxGeometry width="160" relative="1" as="geometry">
                        <mxPoint x="1690" y="540" as="sourcePoint"/>
                        <mxPoint x="1850" y="540" as="targetPoint"/>
                    </mxGeometry>
                </mxCell>
                <mxCell id="141" value="" style="endArrow=block;dashed=1;endFill=0;endSize=12;html=1;strokeColor=#E07A5F;fillColor=#F2CC8F;fontColor=#393C56;labelBackgroundColor=#F4F1DE;" parent="1" source="135" target="130" edge="1">
                    <mxGeometry width="160" relative="1" as="geometry">
                        <mxPoint x="1880" y="558.13" as="sourcePoint"/>
                        <mxPoint x="2035" y="460" as="targetPoint"/>
                    </mxGeometry>
                </mxCell>
                <mxCell id="144" value="" style="endArrow=open;html=1;edgeStyle=orthogonalEdgeStyle;strokeColor=#E07A5F;fillColor=#F2CC8F;fontColor=#393C56;endFill=0;endSize=12;labelBackgroundColor=#F4F1DE;" parent="1" source="91" target="110" edge="1">
                    <mxGeometry relative="1" as="geometry">
                        <mxPoint x="1260" y="590" as="sourcePoint"/>
                        <mxPoint x="1390" y="700" as="targetPoint"/>
                    </mxGeometry>
                </mxCell>
            </root>
        </mxGraphModel>
    </diagram>
</mxfile>